<?xml version="1.0" encoding="UTF-8"?><svg id="Layer_1" xmlns="http://www.w3.org/2000/svg" viewBox="0 0 1008 288"><defs><style>.cls-1{fill:#f26524;}.cls-2{fill:#f79131;}.cls-3{fill:#333132;}</style></defs><g><path class="cls-3" d="M935.37,153.39c.39,3.9,1.87,6.62,4.44,8.18,2.57,1.56,5.65,2.34,9.23,2.34,1.25,0,2.65-.08,4.21-.23,1.64-.23,3.16-.62,4.56-1.17,1.4-.55,2.54-1.32,3.39-2.34,.93-1.09,1.36-2.49,1.29-4.21-.08-1.71-.7-3.12-1.87-4.21-1.17-1.09-2.69-1.95-4.56-2.57-1.79-.7-3.85-1.29-6.2-1.75-2.33-.47-4.71-.97-7.13-1.52-2.49-.55-4.91-1.21-7.25-1.99-2.26-.78-4.33-1.83-6.2-3.16-1.79-1.32-3.23-3-4.32-5.03-1.09-2.1-1.64-4.68-1.64-7.71,0-3.27,.78-6,2.34-8.18,1.64-2.26,3.66-4.05,6.08-5.38,2.49-1.4,5.22-2.38,8.18-2.92,3.04-.55,5.92-.82,8.65-.82,3.11,0,6.07,.35,8.88,1.05,2.89,.62,5.46,1.68,7.72,3.16,2.33,1.48,4.25,3.43,5.72,5.84,1.56,2.34,2.53,5.18,2.92,8.53h-13.91c-.62-3.19-2.1-5.34-4.44-6.43-2.27-1.09-4.87-1.64-7.84-1.64-.93,0-2.07,.08-3.39,.23-1.25,.16-2.45,.47-3.62,.94-1.09,.39-2.03,1.01-2.81,1.87-.78,.78-1.17,1.83-1.17,3.16,0,1.64,.54,2.96,1.64,3.97,1.17,1.01,2.65,1.87,4.44,2.57,1.87,.62,3.97,1.17,6.31,1.64,2.34,.47,4.75,.97,7.25,1.52,2.41,.54,4.79,1.21,7.13,1.99,2.33,.78,4.4,1.83,6.2,3.16,1.87,1.32,3.35,3,4.44,5.03,1.17,2.03,1.76,4.52,1.76,7.48,0,3.58-.82,6.62-2.46,9.12-1.63,2.49-3.78,4.52-6.43,6.08-2.57,1.56-5.46,2.69-8.65,3.39-3.2,.7-6.36,1.05-9.47,1.05-3.82,0-7.36-.43-10.64-1.29-3.2-.86-6-2.14-8.42-3.86-2.34-1.79-4.21-3.97-5.61-6.55-1.32-2.65-2.03-5.77-2.1-9.35h13.33Z"/><path class="cls-3" d="M856.72,91.67l13.33-1.92v30.86h.23c.94-1.48,2.07-2.8,3.39-3.97,1.33-1.17,2.77-2.14,4.33-2.92,1.64-.86,3.31-1.48,5.03-1.87,1.79-.47,3.55-.7,5.26-.7,4.75,0,8.88,.86,12.39,2.57,3.58,1.64,6.55,3.94,8.88,6.9,2.34,2.88,4.09,6.27,5.26,10.17,1.17,3.9,1.75,8.07,1.75,12.51,0,4.05-.55,7.99-1.64,11.81-1.01,3.82-2.61,7.21-4.79,10.17-2.1,2.88-4.79,5.22-8.06,7.01-3.27,1.71-7.13,2.57-11.57,2.57-2.03,0-4.09-.16-6.19-.47-2.03-.23-3.97-.74-5.84-1.52-1.87-.78-3.58-1.79-5.14-3.04-1.48-1.25-2.73-2.88-3.74-4.91h-.23v7.24h-12.62V91.67Zm46.52,51.39c0-2.73-.35-5.38-1.05-7.95-.7-2.57-1.75-4.83-3.16-6.78-1.4-2.03-3.16-3.62-5.26-4.79-2.1-1.25-4.52-1.87-7.25-1.87-5.61,0-9.86,1.95-12.74,5.85-2.8,3.9-4.21,9.08-4.21,15.55,0,3.04,.35,5.88,1.05,8.53,.78,2.57,1.91,4.79,3.39,6.66,1.48,1.87,3.23,3.35,5.26,4.44,2.1,1.09,4.52,1.64,7.25,1.64,3.04,0,5.61-.62,7.72-1.87,2.1-1.25,3.82-2.85,5.14-4.79,1.4-2.03,2.38-4.29,2.92-6.78,.62-2.57,.93-5.18,.93-7.83Z"/><path class="cls-3" d="M761.56,91.56l13.51-2.1v82.58h-13.51V91.56Z"/><path class="cls-3" d="M838.57,159.51c0,1.64,.19,2.81,.58,3.51,.47,.7,1.32,1.05,2.57,1.05h1.4c.54,0,1.17-.08,1.87-.23l2.83,7.88c-.47,.16-3.83,1.53-4.7,1.82-.7,.23-1.44,.43-2.22,.58-.78,.16-1.56,.27-2.34,.35-.78,.08-1.44,.12-1.99,.12-2.73,0-4.99-.55-6.78-1.64-1.79-1.09-2.96-3-3.51-5.73-2.65,2.57-5.92,4.44-9.82,5.61-3.82,1.17-7.52,1.75-11.11,1.75-2.73,0-5.34-.39-7.83-1.17-2.49-.7-4.71-1.75-6.66-3.16-1.87-1.48-3.39-3.31-4.56-5.49-1.09-2.26-1.64-4.87-1.64-7.83,0-3.74,.66-6.78,1.99-9.12,1.4-2.34,3.19-4.17,5.38-5.49,2.26-1.32,4.75-2.26,7.48-2.81,2.81-.62,5.61-1.09,8.42-1.4,2.41-.47,4.71-.78,6.9-.93,2.18-.23,4.09-.58,5.73-1.05,1.71-.47,3.04-1.17,3.97-2.1,1.01-1.01,1.52-2.49,1.52-4.44,0-1.71-.43-3.12-1.29-4.21-.78-1.09-1.79-1.91-3.04-2.45-1.17-.62-2.49-1.01-3.97-1.17-1.48-.23-2.88-.35-4.21-.35-3.74,0-6.82,.78-9.23,2.34-2.42,1.56-4,4.46-4.31,7.73l-13.29-1.74c.23-3.9,1.35-5.88,2.99-8.45,1.64-2.57,3.7-4.64,6.2-6.19,2.57-1.56,5.45-2.65,8.65-3.27,3.19-.62,6.47-.93,9.82-.93,2.96,0,5.88,.31,8.77,.93,2.88,.62,5.46,1.64,7.71,3.04,2.34,1.4,4.21,3.23,5.61,5.49,1.4,2.18,2.1,4.87,2.1,8.06v31.09Zm-13.33-16.83c-2.03,1.32-4.52,2.14-7.48,2.45-2.96,.23-5.92,.62-8.88,1.17-1.4,.23-2.77,.58-4.09,1.05-1.32,.39-2.49,.97-3.51,1.75-1.01,.7-1.83,1.68-2.45,2.92-.55,1.17-.82,2.61-.82,4.33,0,1.48,.43,2.73,1.29,3.74,.86,1.01,1.87,1.83,3.04,2.45,1.25,.55,2.57,.93,3.97,1.17,1.48,.23,2.8,.35,3.97,.35,1.48,0,3.08-.19,4.79-.58,1.71-.39,3.31-1.05,4.79-1.99,1.56-.94,2.84-2.1,3.86-3.51,1.01-1.48,1.52-3.27,1.52-5.38v-9.94Z"/><path class="cls-3" d="M715.46,171.55c0,9.12-2.57,15.9-7.71,20.34-5.07,4.52-12.39,6.78-21.98,6.78-3.04,0-6.12-.31-9.23-.93-3.04-.62-5.84-1.68-8.42-3.16-2.49-1.48-4.6-3.43-6.31-5.84-1.71-2.42-2.73-5.38-3.04-8.88h13.33c.39,1.87,1.05,3.39,1.99,4.56,.93,1.17,2.03,2.07,3.27,2.69,1.32,.7,2.77,1.13,4.32,1.29,1.56,.23,3.2,.35,4.91,.35,5.38,0,9.31-1.32,11.81-3.97,2.49-2.65,3.74-6.47,3.74-11.45v-9.23h-.23c-1.87,3.35-4.44,5.96-7.71,7.83-3.19,1.87-6.66,2.8-10.4,2.8-4.83,0-8.96-.82-12.39-2.45-3.35-1.71-6.16-4.01-8.42-6.9-2.18-2.96-3.78-6.35-4.79-10.17-1.01-3.82-1.52-7.91-1.52-12.27,0-4.05,.62-7.91,1.87-11.57,1.25-3.66,3.04-6.86,5.38-9.58,2.34-2.81,5.18-5.03,8.53-6.66,3.43-1.64,7.29-2.45,11.57-2.45,3.82,0,7.33,.82,10.52,2.45,3.19,1.56,5.65,4.05,7.36,7.48h.23v-8.3l13.33,1.88v55.39Zm-29.57-7.36c2.96,0,5.46-.58,7.48-1.75,2.1-1.25,3.78-2.84,5.03-4.79,1.32-2.03,2.26-4.29,2.8-6.78,.62-2.57,.94-5.14,.94-7.72s-.31-5.07-.94-7.48c-.62-2.41-1.6-4.56-2.92-6.43-1.25-1.87-2.92-3.35-5.03-4.44-2.03-1.09-4.48-1.64-7.36-1.64s-5.46,.62-7.48,1.87c-2.03,1.25-3.66,2.88-4.91,4.91-1.25,1.95-2.14,4.21-2.69,6.78-.54,2.49-.82,4.99-.82,7.48s.31,4.95,.93,7.36c.62,2.34,1.56,4.44,2.81,6.31,1.32,1.87,2.96,3.39,4.91,4.56,2.03,1.17,4.44,1.75,7.25,1.75Z"/><path class="cls-3" d="M445.33,114.56l12.62-1.88v8.88l.23,.23c2.03-3.35,4.68-5.96,7.95-7.83,3.27-1.95,6.9-2.92,10.87-2.92,6.62,0,11.84,1.71,15.66,5.14,3.82,3.43,6.31,8.57,6.31,15.43v40.43h-13.41v-36.93c-.16-4.75-1.67-8.18-3.54-10.29-1.87-2.18-4.79-3.27-8.77-3.27-2.26,0-4.29,.43-6.08,1.29-1.79,.78-3.31,1.91-4.56,3.39-1.25,1.4-2.22,3.08-2.92,5.03-.7,1.95-1.05,4.01-1.05,6.2v34.59h-13.33v-57.49Z"/><path class="cls-3" d="M430.67,159.84c0,1.64,.19,2.81,.58,3.51,.47,.7,1.32,1.05,2.57,1.05h1.4c.55,0,1.17-.08,1.87-.23l2.83,7.88c-.47,.16-3.83,1.53-4.7,1.82-.7,.23-1.44,.43-2.22,.58s-1.56,.27-2.34,.35c-.78,.08-1.44,.12-1.99,.12-2.73,0-4.99-.55-6.78-1.64-1.79-1.09-2.96-3-3.51-5.73-2.65,2.57-5.92,4.44-9.82,5.61-3.82,1.17-7.52,1.75-11.1,1.75-2.73,0-5.34-.39-7.83-1.17-2.49-.7-4.71-1.75-6.66-3.16-1.87-1.48-3.39-3.31-4.56-5.49-1.09-2.26-1.64-4.87-1.64-7.83,0-3.74,.66-6.78,1.99-9.12,1.4-2.34,3.19-4.17,5.38-5.49,2.26-1.32,4.75-2.26,7.48-2.81,2.81-.62,5.61-1.09,8.42-1.4,2.42-.47,4.71-.78,6.9-.93,2.18-.23,4.09-.58,5.73-1.05,1.71-.47,3.04-1.17,3.97-2.1,1.01-1.01,1.52-2.49,1.52-4.44,0-1.71-.43-3.12-1.29-4.21-.78-1.09-1.79-1.91-3.04-2.45-1.17-.62-2.49-1.01-3.97-1.17-1.48-.23-2.88-.35-4.21-.35-3.74,0-6.82,.78-9.23,2.34-2.41,1.56-4,4.46-4.31,7.73l-13.29-1.74c.23-3.9,1.35-5.88,2.99-8.45,1.64-2.57,3.7-4.64,6.2-6.19,2.57-1.56,5.46-2.65,8.65-3.27,3.19-.62,6.47-.93,9.82-.93,2.96,0,5.88,.31,8.77,.93,2.88,.62,5.46,1.64,7.72,3.04,2.34,1.4,4.21,3.23,5.61,5.49,1.4,2.18,2.1,4.87,2.1,8.06v31.09Zm-13.33-16.83c-2.03,1.32-4.52,2.14-7.48,2.45-2.96,.23-5.92,.62-8.88,1.17-1.4,.23-2.77,.58-4.09,1.05-1.32,.39-2.49,.97-3.51,1.75-1.01,.7-1.83,1.68-2.46,2.92-.55,1.17-.82,2.61-.82,4.32,0,1.48,.43,2.73,1.29,3.74,.86,1.01,1.87,1.83,3.04,2.46,1.25,.55,2.57,.93,3.97,1.17,1.48,.23,2.81,.35,3.97,.35,1.48,0,3.08-.19,4.79-.58,1.71-.39,3.31-1.05,4.79-1.99,1.56-.94,2.84-2.1,3.86-3.51,1.01-1.48,1.52-3.27,1.52-5.38v-9.94Z"/><path class="cls-3" d="M263.64,153.7c.39,3.9,1.87,6.62,4.44,8.18,2.57,1.56,5.65,2.34,9.23,2.34,1.25,0,2.65-.08,4.21-.23,1.64-.23,3.16-.62,4.56-1.17,1.4-.55,2.53-1.32,3.39-2.34,.94-1.09,1.36-2.49,1.29-4.21-.08-1.71-.7-3.12-1.87-4.21-1.17-1.09-2.69-1.95-4.56-2.57-1.79-.7-3.86-1.29-6.19-1.75-2.34-.47-4.72-.97-7.13-1.52-2.49-.55-4.91-1.21-7.25-1.99-2.26-.78-4.33-1.83-6.2-3.16-1.79-1.32-3.23-3-4.32-5.03-1.09-2.1-1.64-4.68-1.64-7.71,0-3.27,.78-6,2.34-8.18,1.64-2.26,3.66-4.05,6.08-5.38,2.49-1.4,5.22-2.38,8.18-2.92,3.04-.55,5.92-.82,8.65-.82,3.12,0,6.08,.35,8.88,1.05,2.88,.62,5.46,1.68,7.72,3.16,2.34,1.48,4.25,3.43,5.73,5.84,1.56,2.34,2.53,5.18,2.92,8.53h-13.91c-.62-3.19-2.1-5.34-4.44-6.43-2.26-1.09-4.87-1.64-7.83-1.64-.93,0-2.06,.08-3.39,.23-1.25,.16-2.46,.47-3.62,.93-1.09,.39-2.03,1.01-2.8,1.87-.78,.78-1.17,1.83-1.17,3.16,0,1.64,.55,2.96,1.64,3.97,1.17,1.01,2.65,1.87,4.44,2.57,1.87,.62,3.97,1.17,6.31,1.64,2.34,.47,4.75,.97,7.25,1.52,2.42,.55,4.79,1.21,7.13,1.99,2.34,.78,4.4,1.83,6.2,3.16,1.87,1.32,3.35,3,4.44,5.03,1.17,2.03,1.75,4.52,1.75,7.48,0,3.58-.82,6.62-2.45,9.12-1.64,2.49-3.78,4.52-6.43,6.08-2.57,1.56-5.46,2.69-8.65,3.39-3.19,.7-6.35,1.05-9.47,1.05-3.82,0-7.36-.43-10.64-1.29-3.19-.86-6-2.14-8.42-3.86-2.34-1.79-4.21-3.97-5.61-6.55-1.32-2.65-2.03-5.77-2.1-9.35h13.33Z"/><path class="cls-3" d="M311.63,114.1l12.62-1.43v8.18h.23c1.87-3.51,4.48-6,7.83-7.48,3.35-1.56,6.97-2.34,10.87-2.34,4.75,0,8.88,.86,12.39,2.57,3.58,1.64,6.55,3.94,8.88,6.9,2.34,2.88,4.09,6.27,5.26,10.17,1.17,3.9,1.75,8.06,1.75,12.51,0,4.05-.55,7.99-1.64,11.81-1.01,3.82-2.61,7.21-4.79,10.17-2.1,2.88-4.79,5.22-8.06,7.01-3.27,1.71-7.13,2.57-11.57,2.57-1.95,0-3.9-.19-5.85-.58-1.95-.31-3.82-.86-5.61-1.64-1.79-.78-3.47-1.75-5.03-2.92-1.48-1.25-2.73-2.69-3.74-4.33h-.23v30.16h-13.33V114.1Zm46.52,28.85c0-2.73-.35-5.38-1.05-7.95-.7-2.57-1.75-4.83-3.16-6.78-1.4-2.03-3.16-3.62-5.26-4.79-2.1-1.25-4.52-1.87-7.25-1.87-5.61,0-9.86,1.95-12.74,5.85-2.8,3.9-4.21,9.08-4.21,15.55,0,3.04,.35,5.88,1.05,8.53,.78,2.57,1.91,4.79,3.39,6.66,1.48,1.87,3.23,3.35,5.26,4.44,2.1,1.09,4.52,1.64,7.25,1.64,3.04,0,5.61-.62,7.72-1.87,2.1-1.25,3.82-2.84,5.14-4.79,1.4-2.03,2.38-4.29,2.92-6.78,.62-2.57,.94-5.18,.94-7.83Z"/><path class="cls-3" d="M585.44,112.78l-13.33,1.88v57.49h13.33v-59.37Z"/><circle class="cls-3" cx="578.82" cy="100.29" r="8.62"/><path class="cls-3" d="M597.1,114.56l12.62-1.88v8.88l.23,.23c2.03-3.35,4.68-5.96,7.95-7.83,3.27-1.95,6.9-2.92,10.87-2.92,6.62,0,11.84,1.71,15.66,5.14,3.82,3.43,6.31,8.57,6.31,15.43v40.43h-13.41v-36.93c-.16-4.75-1.67-8.18-3.54-10.29-1.87-2.18-4.79-3.27-8.77-3.27-2.26,0-4.29,.43-6.08,1.29-1.79,.78-3.31,1.91-4.56,3.39-1.25,1.4-2.22,3.08-2.92,5.03-.7,1.95-1.05,4.01-1.05,6.19v34.59h-13.33v-57.49Z"/><path class="cls-3" d="M506.81,114.56l12.62-1.88v8.88l.23,.23c2.03-3.35,4.68-5.96,7.95-7.83,3.27-1.95,6.9-2.92,10.87-2.92,6.62,0,11.84,1.71,15.66,5.14,3.82,3.43,6.31,8.57,6.31,15.43v40.43h-13.41v-36.93c-.16-4.75-1.67-8.18-3.54-10.29-1.87-2.18-4.79-3.27-8.77-3.27-2.26,0-4.29,.43-6.08,1.29-1.79,.78-3.31,1.91-4.56,3.39-1.25,1.4-2.22,3.08-2.92,5.03-.7,1.95-1.05,4.01-1.05,6.19v34.59h-13.33v-57.49Z"/></g><g><path class="cls-2" d="M133.34,114.92h54.43l40.34,57.48-155.77,.04L31.33,114.69l39.71-57.52,100.04,.03-37.73,57.72Z"/><path class="cls-2" d="M126.55,172.44h-54.21L31.33,114.69l156.44,.23c15.81,22.38,24.53,35.11,40.34,57.48l-40.34,57.99H85.41l41.14-57.95Z"/><polygon class="cls-1" points="31.33 114.69 187.77 114.92 228.11 172.41 72.34 172.44 31.33 114.69"/></g></svg>